<svg width="32" height="32" viewBox="0 0 32 32" fill="none" xmlns="http://www.w3.org/2000/svg">
<path fill-rule="evenodd" clip-rule="evenodd" d="M16 0C7.1616 0 0 7.1616 0 16C0 24.8384 7.1616 32 16 32C24.8384 32 32 24.8384 32 16C32 7.1616 24.8384 0 16 0Z" fill="#DBEBFF"/>
<path d="M21.3333 10.6667H10.6666C9.92659 10.6667 9.33992 11.26 9.33992 12L9.33325 20C9.33325 20.74 9.92659 21.3333 10.6666 21.3333H21.3333C22.0733 21.3333 22.6666 20.74 22.6666 20V12C22.6666 11.26 22.0733 10.6667 21.3333 10.6667ZM20.6666 20H11.3333C10.9666 20 10.6666 19.7 10.6666 19.3333V20.4H21.3333V19.3333C21.3333 19.7 21.0333 20 20.6666 20ZM21.3333 14.3333H10.6666V12.6667C10.6666 12.3 10.9666 12 11.3333 12H20.6666C21.0333 12 21.3333 12.3 21.3333 12.6667V14.3333Z" fill="#3987F0"/>
</svg>