<svg width="32" height="32" fill="none" xmlns="http://www.w3.org/2000/svg"><path d="M16 32c8.837 0 16-7.163 16-16S24.837 0 16 0 0 7.163 0 16s7.163 16 16 16z" fill="#E7F1FD"/><path d="M7.639 22.13c.45 0 .815-.388.815-.867 0-2.243 1.713-4.067 3.819-4.067s3.82 1.824 3.82 4.066c0 .48.364.868.814.868.45 0 .815-.388.815-.867 0-2.258-1.22-4.214-2.993-5.172.607-.661.985-1.563.985-2.558 0-2.02-1.544-3.663-3.441-3.663-1.897 0-3.44 1.643-3.44 3.663 0 .995.377 1.897.984 2.558-1.773.958-2.993 2.914-2.993 5.171 0 .48.365.868.815.868zm4.634-10.525c.999 0 1.811.865 1.811 1.928 0 1.064-.812 1.928-1.811 1.928-.999 0-1.811-.864-1.811-1.928 0-1.063.812-1.928 1.81-1.928z" fill="#3987F0"/><path d="M17.056 22.13c.363 0 .657-.313.657-.699 0-1.806 1.38-3.275 3.075-3.275 1.696 0 3.076 1.47 3.076 3.275 0 .386.294.699.657.699.362 0 .656-.313.656-.699 0-1.818-.983-3.393-2.41-4.165.489-.532.793-1.258.793-2.06 0-1.626-1.244-2.95-2.772-2.95-1.527 0-2.77 1.324-2.77 2.95 0 .802.304 1.528.793 2.06-1.428.772-2.41 2.347-2.41 4.165 0 .386.293.699.655.699zm3.732-8.477c.805 0 1.46.697 1.46 1.553 0 .857-.655 1.553-1.46 1.553-.804 0-1.458-.696-1.458-1.553 0-.856.654-1.553 1.458-1.553z" fill="#3987F0"/></svg>