<svg width="32" height="32" viewBox="0 0 32 32" fill="none" xmlns="http://www.w3.org/2000/svg">
<circle cx="16" cy="16" r="16" fill="#CB7100" fill-opacity="0.09"/>
<path d="M22.5397 16.189C22.481 16.0689 22.481 15.9312 22.5397 15.8111L23.0839 14.6978C23.3869 14.0779 23.1469 13.3391 22.5374 13.0157L21.4428 12.4349C21.3247 12.3723 21.2437 12.2608 21.2206 12.1291L21.0065 10.9086C20.8873 10.229 20.2587 9.77235 19.5757 9.86899L18.3487 10.0425C18.2163 10.0612 18.0853 10.0187 17.9893 9.92573L17.0987 9.06416C16.6028 8.58442 15.8259 8.58439 15.33 9.06416L14.4394 9.92582C14.3433 10.0188 14.2123 10.0613 14.0799 10.0426L12.853 9.86908C12.1697 9.77238 11.5413 10.2291 11.4221 10.9087L11.2081 12.1292C11.1849 12.2608 11.104 12.3723 10.9859 12.435L9.89128 13.0158C9.28181 13.3391 9.04174 14.078 9.34473 14.6979L9.88891 15.8111C9.94762 15.9312 9.94762 16.069 9.88891 16.1891L9.3447 17.3024C9.04171 17.9222 9.28178 18.6611 9.89125 18.9844L10.9859 19.5652C11.104 19.6279 11.1849 19.7394 11.2081 19.871L11.4221 21.0916C11.5307 21.7102 12.0611 22.1441 12.6708 22.144C12.7308 22.144 12.7918 22.1398 12.853 22.1311L14.08 21.9576C14.2123 21.9388 14.3433 21.9815 14.4394 22.0744L15.33 22.936C15.578 23.1759 15.8961 23.2958 16.2143 23.2957C16.5325 23.2957 16.8508 23.1758 17.0986 22.936L17.9893 22.0744C18.0854 21.9815 18.2163 21.939 18.3487 21.9576L19.5757 22.1311C20.259 22.2278 20.8873 21.7711 21.0065 21.0915L21.2206 19.871C21.2437 19.7394 21.3247 19.6279 21.4428 19.5652L22.5374 18.9844C23.1469 18.6611 23.3869 17.9222 23.0839 17.3023L22.5397 16.189ZM14.5312 12.213C15.3819 12.213 16.0741 12.9052 16.0741 13.7559C16.0741 14.6066 15.3819 15.2988 14.5312 15.2988C13.6804 15.2988 12.9883 14.6066 12.9883 13.7559C12.9883 12.9052 13.6804 12.213 14.5312 12.213ZM13.7348 19.0746C13.6527 19.1568 13.545 19.1979 13.4373 19.1979C13.3296 19.1979 13.2219 19.1568 13.1398 19.0746C12.9754 18.9103 12.9754 18.6439 13.1398 18.4795L18.6938 12.9255C18.8581 12.7612 19.1246 12.7612 19.2889 12.9255C19.4532 13.0898 19.4532 13.3562 19.2889 13.5206L13.7348 19.0746ZM17.8974 19.7871C17.0467 19.7871 16.3545 19.095 16.3545 18.2442C16.3545 17.3935 17.0467 16.7014 17.8974 16.7014C18.7482 16.7014 19.4403 17.3935 19.4403 18.2442C19.4403 19.095 18.7482 19.7871 17.8974 19.7871Z" fill="#DF8700"/>
<path d="M18.0605 17.6918C17.6365 17.6918 17.2915 18.0368 17.2915 18.4608C17.2915 18.8849 17.6365 19.2298 18.0605 19.2298C18.4846 19.2298 18.8295 18.8849 18.8295 18.4608C18.8295 18.0368 18.4846 17.6918 18.0605 17.6918Z" fill="#DF8700"/>
<path d="M14.3691 12.7701C13.9451 12.7701 13.6001 13.1151 13.6001 13.5391C13.6001 13.9632 13.9451 14.3082 14.3691 14.3082C14.7931 14.3082 15.1381 13.9632 15.1381 13.5391C15.1381 13.1151 14.7931 12.7701 14.3691 12.7701Z" fill="#DF8700"/>
</svg>
