<svg width="32" height="32" viewBox="0 0 32 32" fill="none" xmlns="http://www.w3.org/2000/svg">
<path fill-rule="evenodd" clip-rule="evenodd" d="M16 0C7.1616 0 0 7.1616 0 16C0 24.8384 7.1616 32 16 32C24.8384 32 32 24.8384 32 16C32 7.1616 24.8384 0 16 0Z" fill="#DBEBFF"/>
<path d="M20.125 10.375C18.6625 10.375 17.0875 10.675 16 11.5C14.9125 10.675 13.3375 10.375 11.875 10.375C10.7875 10.375 9.6325 10.54 8.665 10.9675C8.1175 11.215 7.75 11.7475 7.75 12.355V20.815C7.75 21.79 8.665 22.51 9.61 22.27C10.345 22.0825 11.125 22 11.875 22C13.045 22 14.29 22.195 15.295 22.69C15.745 22.915 16.255 22.915 16.6975 22.69C17.7025 22.1875 18.9475 22 20.1175 22C20.8675 22 21.6475 22.0825 22.3825 22.27C23.3275 22.5175 24.2425 21.7975 24.2425 20.815V12.355C24.2425 11.7475 23.875 11.215 23.3275 10.9675C22.3675 10.54 21.2125 10.375 20.125 10.375ZM22.75 19.9225C22.75 20.395 22.315 20.74 21.85 20.6575C21.2875 20.5525 20.7025 20.5075 20.125 20.5075C18.85 20.5075 17.0125 20.995 16 21.6325V13C17.0125 12.3625 18.85 11.875 20.125 11.875C20.815 11.875 21.4975 11.9425 22.15 12.085C22.495 12.16 22.75 12.4675 22.75 12.82V19.9225Z" fill="#2B83EA"/>
<path d="M17.4852 15.2575C17.2452 15.2575 17.0277 15.1075 16.9527 14.8675C16.8552 14.575 17.0202 14.2525 17.3127 14.1625C18.4677 13.7875 19.9602 13.6675 21.3327 13.825C21.6402 13.8625 21.8652 14.14 21.8277 14.4475C21.7902 14.755 21.5127 14.98 21.2052 14.9425C19.9902 14.8 18.6627 14.9125 17.6577 15.235C17.5977 15.2425 17.5377 15.2575 17.4852 15.2575Z" fill="#2B83EA"/>
<path d="M17.4852 17.2525C17.2452 17.2525 17.0277 17.1025 16.9527 16.8625C16.8552 16.57 17.0202 16.2475 17.3127 16.1575C18.4602 15.7825 19.9602 15.6625 21.3327 15.82C21.6402 15.8575 21.8652 16.135 21.8277 16.4425C21.7902 16.75 21.5127 16.975 21.2052 16.9375C19.9902 16.795 18.6627 16.9075 17.6577 17.23C17.5977 17.245 17.5377 17.2525 17.4852 17.2525Z" fill="#2B83EA"/>
<path d="M17.4852 19.2474C17.2452 19.2474 17.0277 19.0974 16.9527 18.8574C16.8552 18.5649 17.0202 18.2424 17.3127 18.1524C18.4602 17.7774 19.9602 17.6574 21.3327 17.8149C21.6402 17.8524 21.8652 18.1299 21.8277 18.4374C21.7902 18.7449 21.5127 18.9624 21.2052 18.9324C19.9902 18.7899 18.6627 18.9024 17.6577 19.2249C17.5977 19.2399 17.5377 19.2474 17.4852 19.2474Z" fill="#2B83EA"/>
</svg>
