<svg width="32" height="32" viewBox="0 0 32 32" fill="none" xmlns="http://www.w3.org/2000/svg">
<path fill-rule="evenodd" clip-rule="evenodd" d="M16 0C7.1616 0 0 7.1616 0 16C0 24.8384 7.1616 32 16 32C24.8384 32 32 24.8384 32 16C32 7.1616 24.8384 0 16 0Z" fill="#DBEBFF"/>
<path d="M15.5333 8.01418C11.8156 8.23964 9 11.287 9 14.7707V19.6363C9 20.8436 10.0422 21.8181 11.3333 21.8181H12.1111C12.9667 21.8181 13.6667 21.1636 13.6667 20.3636V17.4544C13.6667 16.6544 12.9667 15.9998 12.1111 15.9998H10.5556V14.7562C10.5556 11.9634 12.8578 9.53422 15.8367 9.45422C18.9244 9.37421 21.4444 11.6797 21.4444 14.5452V15.9998H19.8889C19.0333 15.9998 18.3333 16.6544 18.3333 17.4544V20.3636C18.3333 21.1636 19.0333 21.8181 19.8889 21.8181H21.4444V22.5454H16.7778C16.35 22.5454 16 22.8727 16 23.2727C16 23.6727 16.35 24 16.7778 24H20.6667C21.9578 24 23 23.0254 23 21.8181V14.5452C23 10.7852 19.6089 7.76691 15.5333 8.01418Z" fill="#3987F0"/>
</svg>
