<svg width="44" height="44" viewBox="0 0 44 44" fill="none" xmlns="http://www.w3.org/2000/svg">
<path d="M19.1178 28.4638C18.5213 30.2531 17.0999 31.5677 15.0069 32.2653C14.0681 32.5758 13.089 32.7472 12.1006 32.7744C11.8685 32.7744 11.6459 32.6822 11.4818 32.5181C11.3177 32.354 11.2256 32.1314 11.2256 31.8994C11.2527 30.9109 11.4242 29.9318 11.7346 28.993C12.4322 26.9 13.7468 25.4785 15.5361 24.8821C15.6451 24.8457 15.7603 24.8312 15.8749 24.8394C15.9895 24.8475 16.1014 24.8781 16.2042 24.9295C16.3069 24.9809 16.3986 25.052 16.4739 25.1389C16.5492 25.2257 16.6066 25.3264 16.643 25.4355C16.6793 25.5445 16.6938 25.6596 16.6857 25.7742C16.6775 25.8888 16.6469 26.0007 16.5955 26.1035C16.5441 26.2062 16.473 26.2979 16.3862 26.3732C16.2994 26.4485 16.1986 26.5059 16.0896 26.5423C13.9396 27.2589 13.2736 29.5927 13.0677 30.9324C14.4066 30.7264 16.7409 30.0605 17.4576 27.9103C17.494 27.8013 17.5514 27.7005 17.6267 27.6137C17.702 27.5269 17.7937 27.4558 17.8965 27.4044C17.9992 27.353 18.1111 27.3223 18.2258 27.3142C18.3404 27.306 18.4555 27.3206 18.5645 27.3569C18.6735 27.3932 18.7743 27.4507 18.8611 27.526C18.9479 27.6013 19.0191 27.6929 19.0705 27.7957C19.1219 27.8985 19.1525 28.0104 19.1607 28.125C19.1688 28.2396 19.1543 28.3548 19.118 28.4638H19.1178ZM30.0434 20.1436L29.0624 21.1248V27.8246C29.0631 28.0545 29.0181 28.2822 28.9301 28.4946C28.8421 28.707 28.7129 28.8998 28.5499 29.0619L25.0123 32.5994C24.7883 32.8234 24.5077 32.9824 24.2005 33.0594C23.8932 33.1365 23.5708 33.1287 23.2676 33.0369C22.9645 32.9451 22.6919 32.7728 22.479 32.5382C22.2661 32.3037 22.1208 32.0157 22.0587 31.7051L21.194 27.3811L16.6188 22.8059L12.2948 21.9411C11.9842 21.879 11.6963 21.7337 11.4618 21.5208C11.2273 21.308 11.0549 21.0354 10.9631 20.7323C10.8713 20.4291 10.8635 20.1068 10.9405 19.7995C11.0175 19.4923 11.1765 19.2117 11.4005 18.9877L14.9377 15.4502C15.0999 15.2872 15.2928 15.158 15.5052 15.0701C15.7176 14.9821 15.9453 14.9371 16.1752 14.9377H22.8751L23.8562 13.9565C26.9831 10.8299 30.1915 10.9206 31.426 11.1048C31.7966 11.1585 32.1398 11.3306 32.4046 11.5954C32.6693 11.8601 32.8414 12.2033 32.8953 12.5739C33.0796 13.8083 33.1703 17.0168 30.0435 20.1437L30.0434 20.1436ZM12.6379 20.225L16.7627 21.0499L21.1251 16.6877H16.1753L12.6379 20.225ZM18.2879 21.9998L22.0001 25.7121L28.806 18.9063C29.6602 18.052 31.5998 15.7503 31.1644 12.8323C28.2485 12.4 25.9478 14.3398 25.0937 15.194L18.2879 21.9998ZM27.3124 22.8748L22.95 27.2372L23.775 31.362L27.3123 27.8246L27.3124 22.8748Z" fill="white"/>
</svg>
