
<svg xmlns="http://www.w3.org/2000/svg" width="28" height="20" viewBox="0 0 28 20"><defs><filter id="a" width="129.2%" height="143.8%" x="-14.6%" y="-15.6%" filterUnits="objectBoundingBox"><feOffset dy="1" in="SourceAlpha" result="shadowOffsetOuter1"/><feGaussianBlur in="shadowOffsetOuter1" result="shadowBlurOuter1" stdDeviation="1"/><feColorMatrix in="shadowBlurOuter1" result="shadowMatrixOuter1" values="0 0 0 0 0 0 0 0 0 0 0 0 0 0 0 0 0 0 0.12 0"/><feMerge><feMergeNode in="shadowMatrixOuter1"/><feMergeNode in="SourceGraphic"/></feMerge></filter></defs><g fill="none" filter="url(#a)" transform="translate(2 1)"><path fill="#FAB446" d="M23.95 5.34H0V.44C0 .2.18 0 .41 0h23.13c.23 0 .41.2.41.42v4.9z"/><path fill="#73AF00" d="M23.54 15.99H.41a.42.42 0 0 1-.41-.42v-4.9h23.95v4.9c0 .23-.18.42-.41.42z"/><path fill="#F5F5F5" d="M0 5.34h23.95v5.32H0z"/><g fill="#41479B" transform="translate(9.73 5.71)"><path d="M2.25 4.55A2.24 2.24 0 0 1 .03 2.29c0-1.25 1-2.26 2.22-2.26a2.24 2.24 0 0 1 2.22 2.26c0 1.24-1 2.26-2.22 2.26zm0-4.1c-1 0-1.81.82-1.81 1.84a1.81 1.81 0 1 0 3.62.01c0-1.02-.8-1.84-1.8-1.84z"/><ellipse cx="2.25" cy="2.29" rx="1" ry="1"/><path d="M2.22 2.31l-.5-.41L.8.86.85.81l1.02.94.4.5zm0 0l.4.51 1.02.94.06-.05-.93-1.04-.5-.41z"/><path d="M2.22 2.26l.4-.5L3.65.8l.06.05-.93 1.04-.5.41zm0 0l-.5.41L.8 3.71l.05.05 1.02-.94.4-.5z"/><path d="M2.26 2.32l-.57.31-1.29.48-.03-.08 1.25-.6.61-.18z"/><path d="M2.26 2.32l.62-.19 1.24-.6-.03-.06-1.3.47-.56.31z"/><path d="M2.21 2.3l-.3-.58L1.44.41l.07-.03.59 1.26.18.63z"/><path d="M2.21 2.3l.19.63.58 1.26.07-.03-.47-1.31-.3-.58z"/><path d="M2.23 2.32l-.61-.19-1.25-.6.03-.06 1.3.47.56.31z"/><path d="M2.23 2.32l.57.31 1.3.48.02-.08-1.24-.6-.62-.18z"/><path d="M2.21 2.27l.19-.63.58-1.26.07.03-.47 1.31-.3.58zm0 0l-.3.58-.47 1.31.07.03.59-1.26.18-.63z"/></g><ellipse cx="11.98" cy="8" fill="#F5F5F5" rx="1" ry="1"/></g></svg>