<svg width="12" height="12" viewBox="0 0 12 12" fill="none" xmlns="http://www.w3.org/2000/svg">
<path d="M6.00001 5.5C6.27615 5.5 6.50001 5.72386 6.50001 6V8C6.50001 8.27614 6.27615 8.5 6.00001 8.5C5.72387 8.5 5.50001 8.27614 5.50001 8V6C5.50001 5.72386 5.72387 5.5 6.00001 5.5Z" fill="#162F56" fill-opacity="0.54"/>
<path d="M6.00001 3.5C5.72387 3.5 5.50001 3.72386 5.50001 4C5.50001 4.27614 5.72387 4.5 6.00001 4.5H6.00501C6.28115 4.5 6.50501 4.27614 6.50501 4C6.50501 3.72386 6.28115 3.5 6.00501 3.5H6.00001Z" fill="#162F56" fill-opacity="0.54"/>
<path fill-rule="evenodd" clip-rule="evenodd" d="M0.5 6C0.5 2.96243 2.96243 0.5 6 0.5C9.03757 0.5 11.5 2.96243 11.5 6C11.5 9.03757 9.03757 11.5 6 11.5C2.96243 11.5 0.5 9.03757 0.5 6ZM6 1.5C3.51472 1.5 1.5 3.51472 1.5 6C1.5 8.48528 3.51472 10.5 6 10.5C8.48528 10.5 10.5 8.48528 10.5 6C10.5 3.51472 8.48528 1.5 6 1.5Z" fill="#162F56" fill-opacity="0.54"/>
</svg>
