
<svg width="136" height="26" viewBox="0 0 136 26" fill="none" xmlns="http://www.w3.org/2000/svg">
<path d="M7.54946 6.54289L6.57556 10.1463L12.1625 6.52051L8.50849 20.1957L12.2182 20.1994L17.6118 0" fill="#3395FF"/>
<path d="M1.53519 14.4513L0 20.1996H7.60534L10.7166 8.50148L1.53519 14.4513ZM27.9494 9.38928C27.7636 10.0831 27.4067 10.5904 26.8714 10.9187C26.3399 11.2432 25.589 11.4074 24.6263 11.4074H21.5596L22.6376 7.37867H25.7043C26.667 7.37867 27.3324 7.53907 27.6892 7.87106C28.0498 8.19933 28.1353 8.70291 27.9494 9.40047V9.38928ZM31.1239 9.31095C31.5142 7.85614 31.3544 6.73706 30.6407 5.95371C29.927 5.17781 28.678 4.78613 26.8937 4.78613H20.0467L15.9281 20.2071H19.255L20.9165 13.9887H23.0985C23.5892 13.9887 23.972 14.0708 24.2546 14.2237C24.5371 14.3841 24.7006 14.6639 24.7527 15.0705L25.3474 20.2071H28.9085L28.3323 15.4211C28.2133 14.3505 27.7264 13.7239 26.8714 13.5373C27.9643 13.2203 28.8787 12.6906 29.6147 11.9594C30.347 11.232 30.8711 10.3181 31.1276 9.31841L31.1239 9.31095ZM39.205 14.6863C38.9262 15.7307 38.4988 16.5216 37.9189 17.0736C37.339 17.6257 36.6476 17.9018 35.841 17.9018C35.0195 17.9018 34.4619 17.6332 34.1683 17.0923C33.8746 16.5514 33.8634 15.768 34.1385 14.7422C34.4136 13.7164 34.8485 12.9144 35.4507 12.3362C36.0529 11.758 36.7554 11.4708 37.562 11.4708C38.3687 11.4708 38.9188 11.7505 39.1976 12.3064C39.4838 12.8622 39.4875 13.6604 39.2087 14.7012L39.205 14.6863ZM40.6622 9.22888L40.2458 10.7881C40.0674 10.2286 39.718 9.78096 39.2013 9.44524C38.6846 9.11697 38.0453 8.94911 37.2832 8.94911C36.3465 8.94911 35.4507 9.19158 34.5883 9.67651C33.7259 10.1614 32.9713 10.8441 32.3283 11.7282C31.6852 12.6122 31.2131 13.6119 30.9083 14.7385C30.6109 15.8688 30.5477 16.8573 30.7299 17.7152C30.9157 18.5807 31.306 19.2372 31.9082 19.6997C32.5141 20.166 33.291 20.3973 34.2389 20.3973C34.9935 20.401 35.7369 20.2369 36.4209 19.9198C37.0974 19.6139 37.6958 19.1626 38.1791 18.603L37.7442 20.2294H40.9595L43.8961 9.24007H40.6733L40.6622 9.22888ZM55.4491 9.22888H46.1004L45.4462 11.6797H50.8881L43.6954 17.9167L43.082 20.2182H52.7355L53.3898 17.7675H47.5612L54.8655 11.4372L55.4491 9.22888ZM63.6789 14.6676C63.3889 15.7494 62.9615 16.5626 62.3927 17.0923C61.8277 17.6257 61.1401 17.8943 60.3334 17.8943C58.6496 17.8943 58.0957 16.82 58.6681 14.6676C58.9544 13.597 59.3856 12.795 59.9617 12.2541C60.5379 11.7095 61.2367 11.4409 62.0582 11.4409C62.8648 11.4409 63.4075 11.7095 63.6863 12.2541C63.9651 12.7913 63.9651 13.597 63.6789 14.6676ZM65.5598 9.64294C64.8201 9.18039 63.8759 8.94911 62.7236 8.94911C61.5564 8.94911 60.4784 9.18039 59.4822 9.63921C58.4934 10.098 57.6236 10.7807 56.9434 11.6312C56.2445 12.4966 55.739 13.5075 55.4305 14.6639C55.1257 15.8165 55.0885 16.8274 55.3264 17.6929C55.5606 18.5583 56.0587 19.2223 56.8021 19.6811C57.553 20.1436 58.5046 20.3749 59.6755 20.3749C60.8278 20.3749 61.8984 20.1436 62.8834 19.6811C63.8685 19.2148 64.7123 18.5545 65.4111 17.6854C66.1099 16.82 66.6117 15.8091 66.924 14.6527C67.2325 13.4963 67.2697 12.4854 67.0355 11.62C66.8013 10.7546 66.3106 10.0906 65.5746 9.62802L65.5598 9.64294ZM77.0384 12.1646L77.8636 9.17293C77.5848 9.03118 77.2205 8.95657 76.7596 8.95657C76.0236 8.95657 75.3174 9.13935 74.6334 9.50865C74.0461 9.82199 73.548 10.2659 73.1279 10.8217L73.5554 9.21023L72.6224 9.21396H70.3289L67.3738 20.1996H70.6337L72.1652 14.455C72.3882 13.6194 72.7897 12.9629 73.3696 12.4966C73.9457 12.0266 74.6631 11.7953 75.533 11.7953C76.0682 11.799 76.5663 11.9221 77.0384 12.1646ZM86.112 14.7198C85.8332 15.7457 85.4132 16.529 84.837 17.0699C84.2609 17.6145 83.5658 17.8831 82.7628 17.8831C81.9562 17.8831 81.4061 17.6108 81.1161 17.0624C80.8188 16.5104 80.8113 15.7195 81.0901 14.6788C81.3689 13.6381 81.7964 12.8398 82.3837 12.284C82.971 11.7282 83.6661 11.4484 84.4727 11.4484C85.2645 11.4484 85.7998 11.7356 86.0823 12.3138C86.3685 12.892 86.3722 13.694 86.1009 14.7198H86.112ZM88.3795 9.65786C87.7773 9.17293 87.0041 8.93046 86.0674 8.93046C85.2459 8.93046 84.4653 9.11697 83.7256 9.49373C82.9859 9.87049 82.3837 10.3815 81.9228 11.0306L81.9339 10.956L82.4803 9.21023H79.2947L78.4844 12.2504L78.4584 12.3548L75.1129 24.8773H78.3766L80.0605 18.5732C80.2277 19.1327 80.5697 19.5729 81.0901 19.8937C81.6105 20.2108 82.2536 20.3675 83.0156 20.3675C83.9635 20.3675 84.8668 20.1362 85.7254 19.6774C86.5878 19.2148 87.3313 18.5508 87.9632 17.6929C88.5951 16.8349 89.0635 15.8389 89.3645 14.7161C89.6694 13.5896 89.7288 12.5824 89.5578 11.7058C89.3831 10.8254 88.9891 10.1428 88.3869 9.66159L88.3795 9.65786ZM99.2076 14.6751C98.9288 15.7121 98.5014 16.5104 97.9252 17.055C97.349 17.6071 96.6539 17.8794 95.851 17.8794C95.0258 17.8794 94.4682 17.6108 94.1783 17.0699C93.8809 16.529 93.8735 15.7457 94.1486 14.7198C94.4236 13.694 94.8548 12.892 95.457 12.3138C96.0592 11.7356 96.7617 11.4484 97.5684 11.4484C98.375 11.4484 98.9177 11.7282 99.2039 12.2802C99.4864 12.8398 99.4864 13.6381 99.2076 14.6751ZM100.665 9.21396L100.248 10.7732C100.07 10.2099 99.7206 9.76231 99.2076 9.43032C98.6872 9.09832 98.0479 8.93419 97.2858 8.93419C96.3491 8.93419 95.4458 9.17666 94.5835 9.66159C93.7211 10.1465 92.9665 10.8254 92.3234 11.7058C91.6803 12.5861 91.2083 13.5896 90.9035 14.7161C90.6024 15.8464 90.5429 16.8349 90.725 17.6966C90.9072 18.5545 91.2975 19.2185 91.9034 19.6811C92.5056 20.1399 93.2862 20.3749 94.234 20.3749C94.9961 20.3749 95.7246 20.2145 96.416 19.8974C97.0888 19.5916 97.6873 19.1402 98.1705 18.5769L97.7356 20.2033H100.951L103.888 9.21769H100.672L100.665 9.21396ZM117.385 9.21769L115.411 9.21396C115.348 9.21396 115.292 9.21769 115.232 9.21769H114.206L113.679 9.95255L113.548 10.1279L113.493 10.2137L109.329 16.0403L108.467 9.22142H105.055L106.783 19.5841L102.966 24.8848H106.367L107.289 23.5718C107.315 23.5345 107.337 23.5009 107.371 23.4598L108.449 21.923L108.478 21.8782L113.307 15.0071L117.377 9.22515L117.385 9.22142H117.381L117.385 9.21769Z" fill="white"/>
<path d="M124.022 9.37479L121.807 12.2844L116.287 5.04395H120.732L124.022 9.37479Z" fill="#072654"/>
<path d="M124.022 9.37479L121.807 12.2844L116.287 5.04395H120.732L124.022 9.37479Z" fill="#FF9700"/>
<path d="M131.555 0.223633H135.317L120.333 20.1992H116.289L131.555 0.223633Z" fill="#072654"/>
<path d="M131.555 0.223633H135.317L120.333 20.1992H116.289L131.555 0.223633Z" fill="white"/>
<path d="M123.31 14.4055L124.696 10.209L136 25.0181H131.272L123.31 14.4055Z" fill="#072654"/>
<path d="M123.31 14.4055L124.696 10.209L136 25.0181H131.272L123.31 14.4055Z" fill="white"/>
</svg>
