<svg width="32" height="32" viewBox="0 0 32 32" fill="none" xmlns="http://www.w3.org/2000/svg">
<path fill-rule="evenodd" clip-rule="evenodd" d="M8.49243 22.1483V14.4493C8.49243 12.2546 11.8037 10.5999 16.1942 10.5999C20.5848 10.5999 23.896 12.2546 23.896 14.4493V22.1483C23.896 24.3431 20.5848 25.9978 16.1942 25.9978C11.8037 25.9978 8.49243 24.3431 8.49243 22.1483ZM22.6124 14.5663C22.6124 13.3546 19.8678 12 16.1943 12C12.5208 12 9.77612 13.3546 9.77612 14.5663C9.77612 15.7781 12.5208 17.1327 16.1943 17.1327C19.8678 17.1327 22.6124 15.7781 22.6124 14.5663ZM16.1943 20.7674C12.5208 20.7674 9.77612 19.4128 9.77612 18.2011V16.6348C11.6953 17.8316 13.9351 18.4123 16.1943 18.2988C18.4535 18.4123 20.6932 17.8316 22.6124 16.6348V18.2011C22.6124 19.4128 19.8678 20.7674 16.1943 20.7674ZM16.1943 24.7146C12.5208 24.7146 9.77612 23.36 9.77612 22.1483V20.4843C11.6953 21.6811 13.9351 22.2618 16.1943 22.1483C18.4535 22.2618 20.6932 21.6811 22.6124 20.4843V22.1483C22.6124 23.36 19.8678 24.7146 16.1943 24.7146Z" fill="white"/>
<path fill-rule="evenodd" clip-rule="evenodd" d="M13.0241 7.87249C13.2701 8.11851 13.669 8.11851 13.915 7.87249L16.2436 5.54387L18.5723 7.87249C18.8183 8.11851 19.2171 8.11851 19.4632 7.87249C19.7092 7.62648 19.7092 7.2276 19.4632 6.98159L16.6891 4.20751C16.4431 3.9615 16.0442 3.9615 15.7982 4.20751L13.0241 6.98159C12.7781 7.2276 12.7781 7.62648 13.0241 7.87249Z" fill="white"/>
<path fill-rule="evenodd" clip-rule="evenodd" d="M16.194 13.9952C16.5694 13.9952 16.8736 13.7593 16.8736 13.4683V5.34752C16.8736 5.05652 16.5694 4.82061 16.194 4.82061C15.8187 4.82061 15.5144 5.05652 15.5144 5.34752V13.4683C15.5144 13.7593 15.8187 13.9952 16.194 13.9952Z" fill="white"/>
</svg>
