<svg width="32" height="32" fill="none" xmlns="http://www.w3.org/2000/svg"><path fill-rule="evenodd" clip-rule="evenodd" d="M16 0C7.1616 0 0 7.1616 0 16s7.1616 16 16 16 16-7.1616 16-16S24.8384 0 16 0z" fill="url(#paint0_linear)"/><path d="M19 8c-4.42 0-8 3.58-8 8s3.58 8 8 8 8-3.58 8-8-3.58-8-8-8zm0 14c-3.31 0-6-2.69-6-6s2.69-6 6-6 6 2.69 6 6-2.69 6-6 6zM7 16c0-2.39 1.4-4.46 3.43-5.42.34-.16.57-.47.57-.84v-.19c0-.68-.71-1.11-1.32-.82C6.92 9.99 5 12.77 5 16c0 3.23 1.92 6.01 4.68 7.27.61.28 1.32-.14 1.32-.82v-.18c0-.37-.23-.69-.57-.85C8.4 20.46 7 18.39 7 16z" fill="#fff"/></svg>
