<svg width="33" height="32" viewBox="0 0 33 32" fill="none" xmlns="http://www.w3.org/2000/svg">
<path d="M11.0876 16.7956C11.0876 16.6143 11.1597 16.4404 11.2879 16.3122C11.4161 16.184 11.59 16.1119 11.7713 16.1119C11.9526 16.1119 12.1265 16.184 12.2547 16.3122C12.3829 16.4404 12.4549 16.6143 12.4549 16.7956V20.8973C12.4549 21.0786 12.3829 21.2525 12.2547 21.3807C12.1265 21.5089 11.9526 21.581 11.7713 21.581C11.59 21.581 11.4161 21.5089 11.2879 21.3807C11.1597 21.2525 11.0876 21.0786 11.0876 20.8973V16.7956Z" fill="white" stroke="white" stroke-width="0.5"/>
<path d="M15.1897 16.7956C15.1897 16.6143 15.2617 16.4404 15.3899 16.3122C15.5181 16.184 15.692 16.1119 15.8733 16.1119C16.0546 16.1119 16.2285 16.184 16.3567 16.3122C16.4849 16.4404 16.557 16.6143 16.557 16.7956V20.8973C16.557 21.0786 16.4849 21.2525 16.3567 21.3807C16.2285 21.5089 16.0546 21.581 15.8733 21.581C15.692 21.581 15.5181 21.5089 15.3899 21.3807C15.2617 21.2525 15.1897 21.0786 15.1897 20.8973V16.7956Z" fill="white" stroke="white" stroke-width="0.5"/>
<path d="M19.2913 16.7956C19.2913 16.6143 19.3633 16.4404 19.4915 16.3122C19.6197 16.184 19.7936 16.1119 19.9749 16.1119C20.1562 16.1119 20.3301 16.184 20.4583 16.3122C20.5865 16.4404 20.6585 16.6143 20.6585 16.7956V20.8973C20.6585 21.0786 20.5865 21.2525 20.4583 21.3807C20.3301 21.5089 20.1562 21.581 19.9749 21.581C19.7936 21.581 19.6197 21.5089 19.4915 21.3807C19.3633 21.2525 19.2913 21.0786 19.2913 20.8973V16.7956Z" fill="white" stroke="white" stroke-width="0.5"/>
<path d="M9.03685 23.9982C8.92912 23.9982 8.82244 23.977 8.72291 23.9358C8.62338 23.8945 8.53295 23.8341 8.45677 23.7579C8.38059 23.6818 8.32017 23.5913 8.27894 23.4918C8.23771 23.3923 8.21649 23.2856 8.21649 23.1779C8.21649 23.0701 8.23771 22.9635 8.27894 22.8639C8.32017 22.7644 8.38059 22.674 8.45677 22.5978C8.53295 22.5216 8.62338 22.4612 8.72291 22.42C8.82244 22.3787 8.92912 22.3575 9.03685 22.3575H23.393C23.5007 22.3575 23.6074 22.3787 23.7069 22.42C23.8065 22.4612 23.8969 22.5216 23.9731 22.5978C24.0493 22.674 24.1097 22.7644 24.1509 22.8639C24.1921 22.9635 24.2134 23.0701 24.2134 23.1779C24.2134 23.2856 24.1921 23.3923 24.1509 23.4918C24.1097 23.5913 24.0493 23.6818 23.9731 23.7579C23.8969 23.8341 23.8065 23.8945 23.7069 23.9358C23.6074 23.977 23.5007 23.9982 23.393 23.9982H9.03685ZM9.03685 15.1111C8.25136 15.1111 7.91501 14.1143 8.53985 13.6385L15.7179 8.16952C15.8608 8.06074 16.0354 8.00183 16.2149 8.00183C16.3945 8.00183 16.5691 8.06074 16.7119 8.16952L23.89 13.6385C24.5148 14.1143 24.1778 15.1111 23.393 15.1111H9.03685ZM20.9627 13.4704L16.2149 9.85329L11.4665 13.4704H20.962H20.9627Z" fill="white"/>
</svg>
