<svg width="33" height="32" viewBox="0 0 33 32" fill="none" xmlns="http://www.w3.org/2000/svg">
<path fill-rule="evenodd" clip-rule="evenodd" d="M14.387 11.4708C14.387 12.021 14.8329 12.4669 15.3831 12.4669L20.5902 12.4669L20.5902 17.6741C20.5902 18.2242 21.0362 18.6702 21.5863 18.6702C22.1365 18.6702 22.5824 18.2242 22.5824 17.6741L22.5824 11.4708C22.5824 10.9207 22.1365 10.4747 21.5863 10.4747L15.3831 10.4747C14.8329 10.4747 14.387 10.9207 14.387 11.4708Z" fill="white"/>
<path fill-rule="evenodd" clip-rule="evenodd" d="M11.0855 21.8609C11.5052 22.2806 12.1092 22.357 12.4345 22.0316L21.5142 12.9519C21.8396 12.6266 21.7632 12.0226 21.3435 11.603C20.9238 11.1833 20.3199 11.1069 19.9945 11.4322L10.9148 20.5119C10.5894 20.8373 10.6659 21.4412 11.0855 21.8609Z" fill="white"/>
</svg>
