<svg width="33" height="32" viewBox="0 0 33 32" fill="none" xmlns="http://www.w3.org/2000/svg">
<path fill-rule="evenodd" clip-rule="evenodd" d="M22.0209 10.238C22.0199 10.2383 22.018 10.2387 22.0153 10.2397L8.49322 15.1227C8.48959 15.124 8.48735 15.1251 8.48619 15.1257C8.4856 15.1271 8.48381 15.1308 8.4837 15.1359C8.48359 15.141 8.48454 15.1443 8.48507 15.1457C8.4862 15.1464 8.48906 15.1481 8.49263 15.1495L14.4962 17.6216C14.7537 17.7276 14.96 17.9295 15.0716 18.1846L17.5085 23.7545C17.51 23.7581 17.5113 23.7602 17.512 23.7614C17.5135 23.7619 17.5172 23.7634 17.5223 23.7631C17.5274 23.7629 17.5306 23.7617 17.532 23.7611C17.5327 23.7599 17.5341 23.757 17.5353 23.7533L22.0338 10.2578C22.0347 10.2551 22.0352 10.2532 22.0353 10.2521C22.0355 10.2513 22.0355 10.2507 22.0356 10.2505C22.0353 10.2497 22.034 10.2466 22.0302 10.2429C22.0264 10.2392 22.0233 10.238 22.0225 10.2378C22.0224 10.2378 22.0227 10.2378 22.0225 10.2378C22.0222 10.2378 22.0214 10.2379 22.0209 10.238ZM21.6551 9.24238C22.4997 8.93739 23.3237 9.74124 23.0398 10.5931L18.5413 24.0886C18.23 25.0224 16.9315 25.0813 16.537 24.1795L14.1002 18.6096C14.0987 18.6062 14.0959 18.6035 14.0925 18.6021L8.0889 16.13C7.1802 15.7559 7.20877 14.4591 8.13308 14.1253L21.6551 9.24238Z" fill="white"/>
<path d="M22.0225 10.2378C22.0233 10.238 22.0264 10.2392 22.0302 10.2429C22.034 10.2466 22.0353 10.2497 22.0356 10.2505C22.0355 10.2507 22.0355 10.2513 22.0353 10.2521C22.0352 10.2532 22.0347 10.2551 22.0338 10.2578L17.5353 23.7533C17.5341 23.757 17.5327 23.7599 17.532 23.7611C17.5306 23.7617 17.5274 23.7629 17.5223 23.7631C17.5172 23.7634 17.5135 23.7619 17.512 23.7614C17.5113 23.7602 17.51 23.7581 17.5085 23.7545L15.0716 18.1846C14.96 17.9295 14.7537 17.7276 14.4962 17.6216L8.49263 15.1495C8.48906 15.1481 8.4862 15.1464 8.48507 15.1457C8.48454 15.1443 8.48359 15.141 8.4837 15.1359C8.48381 15.1308 8.4856 15.1271 8.48619 15.1257C8.48735 15.1251 8.48959 15.124 8.49322 15.1227L22.0153 10.2397C22.018 10.2387 22.0199 10.2383 22.0209 10.238C22.0214 10.2379 22.0222 10.2378 22.0225 10.2378ZM22.0225 10.2378C22.0227 10.2378 22.0224 10.2378 22.0225 10.2378ZM23.0398 10.5931C23.3237 9.74124 22.4997 8.93739 21.6551 9.24238L8.13308 14.1253C7.20877 14.4591 7.1802 15.7559 8.0889 16.13L14.0925 18.6021C14.0959 18.6035 14.0987 18.6062 14.1002 18.6096L16.537 24.1795C16.9315 25.0813 18.23 25.0224 18.5413 24.0886L23.0398 10.5931Z" stroke="white" stroke-width="0.5"/>
<rect x="16.9666" y="18.9755" width="4.35981" height="1.06035" rx="0.530175" transform="rotate(-69.9739 16.9666 18.9755)" fill="white"/>
</svg>
