<svg width="33" height="32" viewBox="0 0 33 32" fill="none" xmlns="http://www.w3.org/2000/svg">
<g clip-path="url(#clip0)">
<path d="M23.028 13.2709L22.9684 13.3782L23.028 13.2709L21.1192 12.2105V10.4328C21.1192 9.97578 20.9377 9.53748 20.6145 9.21432C20.2914 8.89116 19.8531 8.70961 19.396 8.70961H13.0335C12.5765 8.70961 12.1382 8.89116 11.815 9.21432C11.4918 9.53748 11.3103 9.97578 11.3103 10.4328V12.2105L9.40158 13.2709L9.40157 13.2709C9.25693 13.3513 9.13641 13.4689 9.0525 13.6115C8.96859 13.7541 8.92434 13.9166 8.92433 14.082V20.772C8.92433 21.4399 9.18967 22.0805 9.66199 22.5528C10.1343 23.0251 10.7749 23.2905 11.4428 23.2905H20.9867C21.6546 23.2905 22.2952 23.0251 22.7675 22.5528C23.2398 22.0805 23.5052 21.4399 23.5052 20.772V14.082C23.5052 13.9166 23.4609 13.7541 23.377 13.6115C23.2931 13.4689 23.1726 13.3513 23.028 13.2709ZM9.98476 14.16L11.3103 13.4236V15.1427L11.2968 15.1354L11.2967 15.1353C11.1728 15.0688 11.0276 15.0541 10.893 15.0945C10.7583 15.1349 10.6452 15.2272 10.5785 15.3509C10.5118 15.4747 10.497 15.6199 10.5373 15.7546C10.5776 15.8893 10.6698 16.0025 10.7935 16.0693L10.7936 16.0694L15.9632 18.853L15.9634 18.8531C16.0407 18.8945 16.1271 18.9162 16.2148 18.9162C16.3025 18.9162 16.3888 18.8945 16.4661 18.8531L16.4663 18.853L21.6359 16.0694L21.636 16.0693C21.7598 16.0025 21.8519 15.8893 21.8922 15.7546C21.9325 15.6199 21.9177 15.4747 21.851 15.3509C21.7843 15.2272 21.6712 15.1349 21.5365 15.0945C21.4019 15.0541 21.2567 15.0688 21.1328 15.1353L21.1328 15.1354L21.1192 15.1427V13.4236L22.4448 14.16V20.7718C22.4443 21.1584 22.2905 21.5291 22.0172 21.8024C21.7438 22.0758 21.3731 22.2296 20.9865 22.23H11.443C11.0564 22.2296 10.6857 22.0758 10.4124 21.8024C10.139 21.5291 9.9852 21.1584 9.98476 20.7718L9.98476 14.16ZM13.0336 9.77004H19.3959C19.3959 9.77004 19.3959 9.77004 19.3959 9.77004C19.5717 9.77025 19.7401 9.84016 19.8644 9.96442C19.9887 10.0887 20.0586 10.2572 20.0588 10.433V15.7137L16.2148 17.7838L12.3707 15.7137V10.433C12.3709 10.2572 12.4408 10.0887 12.5651 9.96442C12.6894 9.84015 12.8579 9.77024 13.0336 9.77004Z" fill="white" stroke="white" stroke-width="0.265106"/>
</g>
<defs>
<clipPath id="clip0">
<rect width="32" height="32" fill="white" transform="translate(0.214844)"/>
</clipPath>
</defs>
</svg>