<svg width="33" height="32" viewBox="0 0 33 32" fill="none" xmlns="http://www.w3.org/2000/svg">
<path fill-rule="evenodd" clip-rule="evenodd" d="M16.2105 10.0989C14.8063 10.0989 13.7305 11.353 13.9457 12.7443L14.9945 19.5755L13.8587 19.7499L12.81 12.9199C12.8099 12.9198 12.81 12.92 12.81 12.9199C12.4875 10.8332 14.1009 8.94971 16.2105 8.94971C18.3201 8.94971 19.9335 10.8328 19.611 12.9195C19.611 12.9196 19.6111 12.9194 19.611 12.9195L18.5623 19.7499L17.4264 19.5755L18.4752 12.7449C18.6903 11.3536 17.6147 10.0989 16.2105 10.0989Z" fill="white"/>
<path d="M12.81 12.9199L13.8587 19.7499L14.9945 19.5755L13.9457 12.7443C13.7305 11.353 14.8063 10.0989 16.2105 10.0989C17.6147 10.0989 18.6903 11.3536 18.4752 12.7449L17.4264 19.5755L18.5623 19.7499L19.611 12.9195M12.81 12.9199C12.81 12.92 12.8099 12.9198 12.81 12.9199ZM12.81 12.9199C12.4875 10.8332 14.1009 8.94971 16.2105 8.94971C18.3201 8.94971 19.9335 10.8328 19.611 12.9195M19.611 12.9195C19.6111 12.9194 19.611 12.9196 19.611 12.9195Z" stroke="white" stroke-width="0.25" stroke-miterlimit="10"/>
<path fill-rule="evenodd" clip-rule="evenodd" d="M11.4673 19.8672C11.4673 19.5498 11.7245 19.2926 12.0419 19.2926C12.3592 19.2926 12.6165 19.5498 12.6165 19.8672V20.5252C12.6165 21.2059 13.1683 21.7578 13.8491 21.7578H18.5803C19.261 21.7578 19.8129 21.2059 19.8129 20.5252V19.8672C19.8129 19.5498 20.0701 19.2926 20.3875 19.2926C20.7048 19.2926 20.9621 19.5498 20.9621 19.8672V21.0998C20.9621 22.0979 20.153 22.907 19.1549 22.907H13.2745C12.2764 22.907 11.4673 22.0979 11.4673 21.0998V19.8672Z" fill="white" stroke="white" stroke-width="0.25" stroke-miterlimit="10"/>
<path fill-rule="evenodd" clip-rule="evenodd" d="M23.2651 19.2218C23.2651 19.5392 23.0079 19.7964 22.6905 19.7964H9.73915C9.42181 19.7964 9.16455 19.5392 9.16455 19.2218C9.16455 18.9045 9.4218 18.6472 9.73915 18.6472H22.6905C23.0079 18.6472 23.2651 18.9045 23.2651 19.2218Z" fill="white" stroke="white" stroke-width="0.25" stroke-miterlimit="10"/>
</svg>
