<svg width="33" height="32" viewBox="0 0 33 32" fill="none" xmlns="http://www.w3.org/2000/svg">
<path fill-rule="evenodd" clip-rule="evenodd" d="M10.4268 10.0183C10.4268 9.26616 11.0365 8.65643 11.7886 8.65643H20.6409C21.3931 8.65643 22.0028 9.26616 22.0028 10.0183V23.3436L18.744 21.3211L16.2148 22.8908L13.6856 21.3211L10.4268 23.3436V10.0183ZM11.8859 10.1156V20.7207L13.6856 19.6038L16.2148 21.1735L18.744 19.6038L20.5437 20.7207V10.1156H11.8859Z" fill="white"/>
<path fill-rule="evenodd" clip-rule="evenodd" d="M13.2869 12.835C13.2869 12.4321 13.6135 12.1055 14.0164 12.1055H17.9885C18.3914 12.1055 18.7181 12.4321 18.7181 12.835C18.7181 13.238 18.3914 13.5646 17.9885 13.5646H14.0164C13.6135 13.5646 13.2869 13.238 13.2869 12.835Z" fill="white"/>
<path fill-rule="evenodd" clip-rule="evenodd" d="M13.2869 15.8637C13.2869 15.4608 13.6135 15.1342 14.0164 15.1342H17.9885C18.3914 15.1342 18.7181 15.4608 18.7181 15.8637C18.7181 16.2666 18.3914 16.5933 17.9885 16.5933H14.0164C13.6135 16.5933 13.2869 16.2666 13.2869 15.8637Z" fill="white"/>
</svg>
