<svg width="32" height="32" viewBox="0 0 32 32" fill="none" xmlns="http://www.w3.org/2000/svg">
<path d="M19.8833 9.76666L22.2417 12.125L19.8833 14.4833L17.525 12.125L19.8833 9.76666ZM13.5 10.1667V13.5H10.1667V10.1667H13.5ZM21.8333 18.5V21.8333H18.5V18.5H21.8333ZM13.5 18.5V21.8333H10.1667V18.5H13.5ZM20.5898 8.11356C20.1994 7.72387 19.5672 7.72387 19.1769 8.11356L15.875 11.4096C15.4839 11.8 15.4836 12.4336 15.8744 12.8244L19.1762 16.1262C19.5668 16.5167 20.1999 16.5167 20.5904 16.1262L23.8923 12.8244C24.283 12.4336 24.2828 11.8 23.8916 11.4096L20.5898 8.11356ZM15.1667 9.49999C15.1667 8.94771 14.719 8.49999 14.1667 8.49999H9.5C8.94771 8.49999 8.5 8.94771 8.5 9.49999V14.1667C8.5 14.7189 8.94772 15.1667 9.5 15.1667H14.1667C14.719 15.1667 15.1667 14.7189 15.1667 14.1667V9.49999ZM23.5 17.8333C23.5 17.281 23.0523 16.8333 22.5 16.8333H17.8333C17.281 16.8333 16.8333 17.281 16.8333 17.8333V22.5C16.8333 23.0523 17.281 23.5 17.8333 23.5H22.5C23.0523 23.5 23.5 23.0523 23.5 22.5V17.8333ZM15.1667 17.8333C15.1667 17.281 14.719 16.8333 14.1667 16.8333H9.5C8.94771 16.8333 8.5 17.281 8.5 17.8333V22.5C8.5 23.0523 8.94772 23.5 9.5 23.5H14.1667C14.719 23.5 15.1667 23.0523 15.1667 22.5V17.8333Z" fill="white"/>
</svg>
