<svg width="32" height="32" viewBox="0 0 32 32" fill="none" xmlns="http://www.w3.org/2000/svg">
<path fill-rule="evenodd" clip-rule="evenodd" d="M8.31982 8.74649C8.31982 8.51085 8.51085 8.31982 8.74649 8.31982H23.2532C23.4888 8.31982 23.6798 8.51085 23.6798 8.74649V21.1198C23.6798 21.2761 23.5944 21.4199 23.4571 21.4946L16.2037 25.4413C16.0766 25.5105 15.923 25.5105 15.7959 25.4413L8.54257 21.4946C8.40528 21.4199 8.31982 21.2761 8.31982 21.1198V8.74649ZM9.17316 9.17316V20.8662L15.9998 24.5808L22.8265 20.8662V9.17316H9.17316Z" fill="white"/>
<path fill-rule="evenodd" clip-rule="evenodd" d="M20.5867 11.3067H12.6934V10.4534H21.0134C21.249 10.4534 21.44 10.6444 21.44 10.88V14.6134H20.5867V11.3067Z" fill="white"/>
<path fill-rule="evenodd" clip-rule="evenodd" d="M10.5601 13.12C10.5601 12.8844 10.7511 12.6934 10.9867 12.6934H18.2401V13.5467H11.4134V19.5837L16.0001 22.0234L20.5867 19.5837V16.96H21.4401V19.84C21.4401 19.9978 21.353 20.1426 21.2138 20.2167L16.2004 22.8834C16.0752 22.95 15.925 22.95 15.7997 22.8834L10.7864 20.2167C10.6471 20.1426 10.5601 19.9978 10.5601 19.84V13.12Z" fill="white"/>
<path fill-rule="evenodd" clip-rule="evenodd" d="M12.7998 18.4533V15.7866H13.6531V18.2069L16.007 19.5648L18.5709 18.1843L18.9754 18.9356L16.2021 20.429C16.0719 20.4991 15.9147 20.4968 15.7866 20.4229L13.0133 18.8229C12.8812 18.7467 12.7998 18.6058 12.7998 18.4533Z" fill="white"/>
</svg>
