<svg width="33" height="32" viewBox="0 0 33 32" fill="none" xmlns="http://www.w3.org/2000/svg">
<path fill-rule="evenodd" clip-rule="evenodd" d="M21.3401 8.90898H11.0896C10.8705 8.90898 10.6929 9.0866 10.6929 9.3057V24.0944C10.6929 24.3135 10.8705 24.4911 11.0896 24.4911H21.3401C21.5592 24.4911 21.7369 24.3135 21.7369 24.0944V9.3057C21.7369 9.0866 21.5592 8.90898 21.3401 8.90898ZM11.0896 7.85107C10.2863 7.85107 9.63501 8.50233 9.63501 9.3057V24.0944C9.63501 24.8978 10.2863 25.549 11.0896 25.549H21.3401C22.1435 25.549 22.7948 24.8978 22.7948 24.0944V9.3057C22.7948 8.50233 22.1435 7.85107 21.3401 7.85107H11.0896Z" fill="white" stroke="white" stroke-width="0.5"/>
<path d="M12.2148 14.5C12.2148 14.2239 12.4685 14 12.7814 14H19.6483C19.9612 14 20.2148 14.2239 20.2148 14.5C20.2148 14.7761 19.9612 15 19.6483 15H12.7814C12.4685 15 12.2148 14.7761 12.2148 14.5Z" fill="white" stroke="white" stroke-width="0.5"/>
<path d="M12.2148 17.5C12.2148 17.2239 12.4685 17 12.7814 17H19.6483C19.9612 17 20.2148 17.2239 20.2148 17.5C20.2148 17.7761 19.9612 18 19.6483 18H12.7814C12.4685 18 12.2148 17.7761 12.2148 17.5Z" fill="white" stroke="white" stroke-width="0.5"/>
<path d="M12.2148 20.5C12.2148 20.2239 12.4685 20 12.7814 20H19.6483C19.9612 20 20.2148 20.2239 20.2148 20.5C20.2148 20.7761 19.9612 21 19.6483 21H12.7814C12.4685 21 12.2148 20.7761 12.2148 20.5Z" fill="white" stroke="white" stroke-width="0.5"/>
<circle cx="16.2149" cy="8.43342" r="1.98249" fill="#3987F0" stroke="white" stroke-width="1.5"/>
</svg>
