<svg width="44" height="44" viewBox="0 0 44 44" fill="none" xmlns="http://www.w3.org/2000/svg">
<path fill-rule="evenodd" clip-rule="evenodd" d="M14.0933 17.875C14.0933 14.2679 17.0175 11.3438 20.6246 11.3438H30.2496C33.8567 11.3438 36.7808 14.2679 36.7808 17.875C36.7808 21.4821 33.8567 24.4062 30.2496 24.4062H20.6246C17.0175 24.4062 14.0933 21.4821 14.0933 17.875ZM20.6246 13.4062C18.1566 13.4062 16.1558 15.407 16.1558 17.875C16.1558 20.343 18.1566 22.3438 20.6246 22.3438H30.2496C32.7176 22.3438 34.7183 20.343 34.7183 17.875C34.7183 15.407 32.7176 13.4062 30.2496 13.4062H20.6246Z" fill="white"/>
<path fill-rule="evenodd" clip-rule="evenodd" d="M15.7001 18.2188H15.1246C11.5175 18.2188 8.59332 21.1429 8.59332 24.75C8.59332 28.3571 11.5175 31.2812 15.1246 31.2812H24.7496C28.3567 31.2812 31.2808 28.3571 31.2808 24.75C31.2808 24.2892 31.2331 23.8395 31.1423 23.4056C30.8924 23.4529 30.6345 23.4776 30.3708 23.4776H29.0346C29.1541 23.8809 29.2183 24.3079 29.2183 24.75C29.2183 27.218 27.2176 29.2188 24.7496 29.2188H15.1246C12.6566 29.2188 10.6558 27.218 10.6558 24.75C10.6558 22.282 12.6566 20.2812 15.1246 20.2812H15.805C15.7364 19.9828 15.7001 19.6719 15.7001 19.3526V18.2188Z" fill="white"/>
</svg>
