<svg width="32" height="32" fill="none" xmlns="http://www.w3.org/2000/svg"><mask id="a" mask-type="alpha" maskUnits="userSpaceOnUse" x="1" y="1" width="30" height="30"><rect x="1.076" y="1.076" width="29.867" height="29.867" rx="14.933" fill="#111B33"/></mask><g mask="url(#a)"><path fill-rule="evenodd" clip-rule="evenodd" d="M6.836 9.618a1.93 1.93 0 0 1 1.93-1.929h13.633a1.93 1.93 0 0 1 1.93 1.93v21.314a1.93 1.93 0 0 1-1.93 1.93H8.765a1.93 1.93 0 0 1-1.93-1.93V9.618zm1.93-.649a.65.65 0 0 0-.65.65v21.314c0 .358.29.65.65.65h13.633a.65.65 0 0 0 .65-.65V9.618a.65.65 0 0 0-.65-.649H8.765z" fill="#fff" stroke="#fff" stroke-width=".5" stroke-miterlimit="10"/></g><rect x="10.889" y="18.104" width="1.396" height="5.585" rx=".698" fill="#fff"/><rect x="13.395" y="16.707" width="1.396" height="6.982" rx=".698" fill="#fff"/><rect x="9.983" y="12.626" width="1.396" height="6.982" rx=".698" transform="rotate(-90 9.983 12.626)" fill="#fff"/><rect x="9.949" y="28.235" width="1.345" height="2.896" rx=".672" transform="rotate(-90 9.95 28.235)" fill="#fff"/><rect x="14.293" y="28.235" width="1.345" height="2.896" rx=".672" transform="rotate(-90 14.293 28.235)" fill="#fff"/><rect x="18.348" y="28.235" width="1.345" height="2.896" rx=".672" transform="rotate(-90 18.348 28.235)" fill="#fff"/><rect x="15.9" y="19.5" width="1.396" height="4.189" rx=".698" fill="#fff"/><rect x="18.406" y="16.009" width="1.396" height="7.68" rx=".698" fill="#fff"/></svg>