<svg width="33" height="32" viewBox="0 0 33 32" fill="none" xmlns="http://www.w3.org/2000/svg">
<path fill-rule="evenodd" clip-rule="evenodd" d="M13.5635 23.955C13.4463 23.8378 13.3805 23.6788 13.3805 23.5131C13.3805 23.3473 13.4463 23.1883 13.5635 23.0711L22.2192 14.4154L18.4249 14.4161C18.3427 14.4162 18.2612 14.4001 18.1853 14.3687C18.1093 14.3373 18.0403 14.2912 17.9821 14.2331C17.924 14.1749 17.8779 14.1059 17.8465 14.0299C17.8151 13.954 17.799 13.8725 17.7991 13.7903C17.799 13.7081 17.8151 13.6267 17.8465 13.5507C17.8779 13.4748 17.924 13.4057 17.9821 13.3476C18.0403 13.2895 18.1093 13.2434 18.1853 13.212C18.2612 13.1806 18.3427 13.1644 18.4249 13.1645L23.7282 13.1645C23.8104 13.1644 23.8918 13.1806 23.9678 13.212C24.0437 13.2434 24.1128 13.2895 24.1709 13.3476C24.229 13.4057 24.2751 13.4748 24.3065 13.5507C24.3379 13.6267 24.3541 13.7081 24.354 13.7903L24.354 19.0936C24.354 19.2596 24.288 19.4188 24.1707 19.5361C24.0533 19.6535 23.8941 19.7194 23.7282 19.7194C23.5622 19.7194 23.403 19.6535 23.2857 19.5361C23.1683 19.4188 23.1024 19.2596 23.1024 19.0936L23.1031 15.2993L14.4474 23.955C14.3302 24.0722 14.1712 24.1381 14.0055 24.1381C13.8397 24.1381 13.6807 24.0722 13.5635 23.955ZM8.70215 12.2807C8.78436 12.2806 8.86578 12.2967 8.94175 12.3281C9.01773 12.3595 9.08675 12.4056 9.14488 12.4637C9.20301 12.5219 9.24911 12.5909 9.28052 12.6669C9.31193 12.7428 9.32805 12.8242 9.32794 12.9065L9.32723 16.7008L17.9829 8.0451C18.1001 7.92789 18.2591 7.86204 18.4248 7.86204C18.5906 7.86204 18.7496 7.92789 18.8668 8.0451C18.984 8.16231 19.0498 8.32128 19.0498 8.48704C19.0498 8.6528 18.984 8.81177 18.8668 8.92898L10.2111 17.5847L14.0055 17.584C14.0876 17.584 14.169 17.6002 14.2449 17.6316C14.3209 17.6631 14.3898 17.7091 14.448 17.7673C14.5061 17.8254 14.5522 17.8944 14.5836 17.9703C14.6151 18.0462 14.6312 18.1276 14.6312 18.2098C14.6312 18.2919 14.6151 18.3733 14.5836 18.4492C14.5522 18.5252 14.5061 18.5941 14.448 18.6523C14.3898 18.7104 14.3209 18.7565 14.2449 18.7879C14.169 18.8194 14.0876 18.8355 14.0055 18.8355L8.70215 18.8355C8.61994 18.8356 8.53852 18.8195 8.46255 18.7881C8.38658 18.7567 8.31755 18.7106 8.25942 18.6525C8.20129 18.5944 8.1552 18.5253 8.12379 18.4494C8.09238 18.3734 8.07626 18.292 8.07636 18.2098L8.07636 12.9065C8.07626 12.8242 8.09237 12.7428 8.12379 12.6669C8.1552 12.5909 8.20129 12.5219 8.25942 12.4637C8.31755 12.4056 8.38658 12.3595 8.46255 12.3281C8.53852 12.2967 8.61994 12.2806 8.70215 12.2807Z" fill="white"/>
<path d="M13.3805 23.5131L13.6305 23.5131L13.3805 23.5131ZM13.5635 23.0711L13.3867 22.8943L13.5635 23.0711ZM22.2192 14.4154L22.396 14.5922C22.4675 14.5207 22.4889 14.4131 22.4502 14.3197C22.4115 14.2263 22.3203 14.1654 22.2192 14.1654L22.2192 14.4154ZM18.4249 14.4161L18.4248 14.1661L18.4246 14.1661L18.4249 14.4161ZM18.1853 14.3687L18.2808 14.1377H18.2808L18.1853 14.3687ZM17.7991 13.7903L18.0491 13.7907L18.0491 13.79L17.7991 13.7903ZM18.4249 13.1645L18.4246 13.4145L18.4249 13.4145V13.1645ZM23.7282 13.1645V13.4145L23.7285 13.4145L23.7282 13.1645ZM23.9678 13.212L23.8722 13.443H23.8723L23.9678 13.212ZM24.3065 13.5507L24.0755 13.6463V13.6463L24.3065 13.5507ZM24.354 13.7903L24.104 13.79V13.7903H24.354ZM24.354 19.0936L24.604 19.0936L24.604 19.0936H24.354ZM23.7282 19.7194V19.9694L23.7282 19.9694L23.7282 19.7194ZM23.1024 19.0936L22.8524 19.0936V19.0936H23.1024ZM23.1031 15.2993L23.3531 15.2993C23.3531 15.1982 23.2922 15.107 23.1988 15.0683C23.1054 15.0296 22.9978 15.051 22.9263 15.1225L23.1031 15.2993ZM14.4474 23.955L14.6242 24.1318L14.4474 23.955ZM14.0055 24.1381L14.0055 23.8881L14.0055 24.1381ZM8.70215 12.2807L8.70184 12.5307L8.70247 12.5307L8.70215 12.2807ZM9.32794 12.9065L9.07794 12.9061L9.07794 12.9064L9.32794 12.9065ZM9.32723 16.7008L9.07723 16.7007C9.07721 16.8019 9.13811 16.893 9.23153 16.9317C9.32496 16.9704 9.4325 16.9491 9.504 16.8776L9.32723 16.7008ZM17.9829 8.0451L17.8061 7.86832L17.9829 8.0451ZM18.4248 7.86204L18.4248 7.61204L18.4248 7.61204V7.86204ZM19.0498 8.48704L19.2998 8.48704L19.2998 8.48704H19.0498ZM18.8668 8.92898L19.0436 9.10576L18.8668 8.92898ZM10.2111 17.5847L10.0343 17.4079C9.9628 17.4794 9.94141 17.587 9.98012 17.6804C10.0188 17.7738 10.11 17.8347 10.2111 17.8347L10.2111 17.5847ZM14.0055 17.584V17.334H14.0054L14.0055 17.584ZM14.0055 18.8355L14.0055 18.5855L14.0055 18.5855V18.8355ZM8.70215 18.8355L8.70215 18.5855L8.70184 18.5855L8.70215 18.8355ZM8.07636 18.2098L8.32636 18.2101L8.32636 18.2098L8.07636 18.2098ZM8.07636 12.9065L8.32636 12.9065L8.32636 12.9061L8.07636 12.9065ZM8.12379 12.6669L8.35482 12.7624L8.12379 12.6669ZM8.46255 12.3281L8.55808 12.5591L8.46255 12.3281ZM13.1305 23.5131C13.1305 23.7451 13.2226 23.9677 13.3867 24.1318L13.7403 23.7782C13.67 23.7079 13.6305 23.6125 13.6305 23.5131L13.1305 23.5131ZM13.3867 22.8943C13.2226 23.0584 13.1305 23.281 13.1305 23.5131L13.6305 23.5131C13.6305 23.4136 13.67 23.3182 13.7403 23.2479L13.3867 22.8943ZM22.0424 14.2386L13.3867 22.8943L13.7403 23.2479L22.396 14.5922L22.0424 14.2386ZM18.4249 14.6661L22.2193 14.6654L22.2192 14.1654L18.4248 14.1661L18.4249 14.6661ZM18.0897 14.5997C18.1961 14.6437 18.3101 14.6663 18.4252 14.6661L18.4246 14.1661C18.3752 14.1662 18.3264 14.1565 18.2808 14.1377L18.0897 14.5997ZM17.8054 14.4098C17.8867 14.4912 17.9834 14.5558 18.0897 14.5997L18.2808 14.1377C18.2352 14.1188 18.1938 14.0912 18.1589 14.0563L17.8054 14.4098ZM17.6155 14.1255C17.6595 14.2318 17.724 14.3285 17.8054 14.4098L18.1589 14.0563C18.124 14.0214 18.0964 13.98 18.0775 13.9344L17.6155 14.1255ZM17.5491 13.79C17.5489 13.9051 17.5715 14.0191 17.6155 14.1255L18.0775 13.9344C18.0587 13.8888 18.049 13.84 18.0491 13.7907L17.5491 13.79ZM17.6155 13.4552C17.5715 13.5616 17.5489 13.6756 17.5491 13.7907L18.0491 13.79C18.049 13.7407 18.0587 13.6918 18.0775 13.6463L17.6155 13.4552ZM17.8054 13.1708C17.724 13.2522 17.6595 13.3489 17.6155 13.4552L18.0775 13.6463C18.0964 13.6007 18.124 13.5593 18.1589 13.5244L17.8054 13.1708ZM18.0897 12.9809C17.9834 13.0249 17.8867 13.0894 17.8054 13.1708L18.1589 13.5244C18.1938 13.4895 18.2352 13.4619 18.2808 13.443L18.0897 12.9809ZM18.4252 12.9145C18.3101 12.9144 18.1961 12.937 18.0897 12.9809L18.2808 13.443C18.3264 13.4242 18.3752 13.4145 18.4246 13.4145L18.4252 12.9145ZM23.7282 12.9145L18.4249 12.9145V13.4145L23.7282 13.4145V12.9145ZM24.0633 12.9809C23.9569 12.937 23.843 12.9144 23.7279 12.9145L23.7285 13.4145C23.7778 13.4145 23.8267 13.4242 23.8722 13.443L24.0633 12.9809ZM24.3477 13.1708C24.2663 13.0894 24.1697 13.0249 24.0633 12.9809L23.8723 13.443C23.9178 13.4618 23.9592 13.4895 23.9941 13.5244L24.3477 13.1708ZM24.5376 13.4552C24.4936 13.3488 24.4291 13.2522 24.3477 13.1708L23.9941 13.5244C24.029 13.5593 24.0567 13.6007 24.0755 13.6463L24.5376 13.4552ZM24.604 13.7907C24.6041 13.6756 24.5815 13.5616 24.5376 13.4552L24.0755 13.6463C24.0944 13.6918 24.104 13.7407 24.104 13.79L24.604 13.7907ZM24.604 19.0936L24.604 13.7903H24.104L24.104 19.0936H24.604ZM24.3474 19.7129C24.5117 19.5487 24.604 19.3259 24.604 19.0936L24.104 19.0936C24.104 19.1933 24.0644 19.2889 23.9939 19.3594L24.3474 19.7129ZM23.7282 19.9694C23.9604 19.9694 24.1832 19.8772 24.3474 19.7129L23.9939 19.3594C23.9234 19.4298 23.8278 19.4694 23.7282 19.4694L23.7282 19.9694ZM23.1089 19.7129C23.2731 19.8772 23.4959 19.9694 23.7282 19.9694V19.4694C23.6285 19.4694 23.5329 19.4298 23.4624 19.3594L23.1089 19.7129ZM22.8524 19.0936C22.8524 19.3259 22.9447 19.5487 23.1089 19.7129L23.4624 19.3594C23.392 19.2889 23.3524 19.1933 23.3524 19.0936H22.8524ZM22.8531 15.2992L22.8524 19.0936L23.3524 19.0937L23.3531 15.2993L22.8531 15.2992ZM14.6242 24.1318L23.2799 15.4761L22.9263 15.1225L14.2706 23.7782L14.6242 24.1318ZM14.0055 24.3881C14.2375 24.3881 14.4601 24.2959 14.6242 24.1318L14.2706 23.7782C14.2003 23.8485 14.1049 23.8881 14.0055 23.8881L14.0055 24.3881ZM13.3867 24.1318C13.5508 24.2959 13.7734 24.3881 14.0055 24.3881L14.0055 23.8881C13.906 23.8881 13.8106 23.8485 13.7403 23.7782L13.3867 24.1318ZM9.03728 12.0971C8.93092 12.0531 8.81693 12.0305 8.70184 12.0307L8.70247 12.5307C8.75179 12.5306 8.80065 12.5403 8.84623 12.5591L9.03728 12.0971ZM9.32166 12.2869C9.24028 12.2056 9.14364 12.141 9.03728 12.0971L8.84623 12.5591C8.89181 12.578 8.93323 12.6056 8.96811 12.6405L9.32166 12.2869ZM9.51155 12.5713C9.46757 12.465 9.40304 12.3683 9.32166 12.2869L8.96811 12.6405C9.00299 12.6754 9.03064 12.7168 9.04949 12.7624L9.51155 12.5713ZM9.57794 12.9068C9.57809 12.7917 9.55553 12.6777 9.51155 12.5713L9.04949 12.7624C9.06834 12.808 9.078 12.8568 9.07794 12.9061L9.57794 12.9068ZM9.57723 16.7008L9.57794 12.9065L9.07794 12.9064L9.07723 16.7007L9.57723 16.7008ZM9.504 16.8776L18.1597 8.22187L17.8061 7.86832L9.15045 16.524L9.504 16.8776ZM18.1597 8.22187C18.23 8.15155 18.3254 8.11204 18.4248 8.11204V7.61204C18.1928 7.61204 17.9702 7.70423 17.8061 7.86832L18.1597 8.22187ZM18.4248 8.11204C18.5243 8.11204 18.6197 8.15155 18.69 8.22187L19.0436 7.86832C18.8795 7.70423 18.6569 7.61204 18.4248 7.61204L18.4248 8.11204ZM18.69 8.22187C18.7603 8.2922 18.7998 8.38758 18.7998 8.48704H19.2998C19.2998 8.25497 19.2077 8.03241 19.0436 7.86832L18.69 8.22187ZM18.7998 8.48704C18.7998 8.58649 18.7603 8.68188 18.69 8.7522L19.0436 9.10576C19.2077 8.94166 19.2998 8.7191 19.2998 8.48704L18.7998 8.48704ZM18.69 8.7522L10.0343 17.4079L10.3879 17.7615L19.0436 9.10576L18.69 8.7522ZM14.0054 17.334L10.211 17.3347L10.2111 17.8347L14.0055 17.834L14.0054 17.334ZM14.3406 17.4006C14.2343 17.3566 14.1205 17.334 14.0055 17.334V17.834C14.0548 17.834 14.1037 17.8437 14.1493 17.8626L14.3406 17.4006ZM14.6247 17.5905C14.5434 17.5092 14.4469 17.4446 14.3406 17.4006L14.1493 17.8626C14.1949 17.8815 14.2363 17.9091 14.2712 17.944L14.6247 17.5905ZM14.8146 17.8746C14.7706 17.7684 14.7061 17.6718 14.6247 17.5905L14.2712 17.944C14.3061 17.9789 14.3338 18.0204 14.3526 18.0659L14.8146 17.8746ZM14.8812 18.2098C14.8812 18.0947 14.8586 17.9809 14.8146 17.8746L14.3526 18.0659C14.3715 18.1115 14.3812 18.1604 14.3812 18.2098L14.8812 18.2098ZM14.8146 18.5449C14.8586 18.4386 14.8812 18.3248 14.8812 18.2098L14.3812 18.2098C14.3812 18.2591 14.3715 18.308 14.3526 18.3536L14.8146 18.5449ZM14.6247 18.829C14.7061 18.7477 14.7706 18.6512 14.8146 18.5449L14.3526 18.3536C14.3338 18.3992 14.3061 18.4406 14.2712 18.4755L14.6247 18.829ZM14.3406 19.0189C14.4469 18.9749 14.5434 18.9104 14.6247 18.829L14.2712 18.4755C14.2363 18.5104 14.1949 18.5381 14.1493 18.5569L14.3406 19.0189ZM14.0055 19.0855C14.1205 19.0855 14.2343 19.0629 14.3406 19.0189L14.1493 18.5569C14.1037 18.5758 14.0548 18.5855 14.0055 18.5855L14.0055 19.0855ZM8.70215 19.0855L14.0055 19.0855L14.0055 18.5855L8.70215 18.5855L8.70215 19.0855ZM8.36703 19.0192C8.47339 19.0631 8.58738 19.0857 8.70247 19.0855L8.70184 18.5855C8.65251 18.5856 8.60366 18.5759 8.55808 18.5571L8.36703 19.0192ZM8.08264 18.8293C8.16403 18.9106 8.26067 18.9752 8.36703 19.0192L8.55808 18.5571C8.51249 18.5382 8.47108 18.5106 8.4362 18.4757L8.08264 18.8293ZM7.89276 18.5449C7.93673 18.6512 8.00126 18.7479 8.08264 18.8293L8.4362 18.4757C8.40132 18.4408 8.37366 18.3994 8.35482 18.3538L7.89276 18.5449ZM7.82636 18.2094C7.82622 18.3245 7.84878 18.4385 7.89276 18.5449L8.35482 18.3538C8.33597 18.3083 8.3263 18.2594 8.32636 18.2101L7.82636 18.2094ZM7.82636 12.9065L7.82636 18.2098L8.32636 18.2098L8.32636 12.9065L7.82636 12.9065ZM7.89276 12.5713C7.84878 12.6777 7.82622 12.7917 7.82636 12.9068L8.32636 12.9061C8.3263 12.8568 8.33597 12.808 8.35482 12.7624L7.89276 12.5713ZM8.08264 12.2869C8.00126 12.3683 7.93673 12.465 7.89276 12.5713L8.35482 12.7624C8.37366 12.7168 8.40132 12.6754 8.4362 12.6405L8.08264 12.2869ZM8.36703 12.0971C8.26067 12.141 8.16403 12.2056 8.08264 12.2869L8.4362 12.6405C8.47108 12.6056 8.51249 12.578 8.55808 12.5591L8.36703 12.0971ZM8.70247 12.0307C8.58738 12.0305 8.47339 12.0531 8.36703 12.0971L8.55808 12.5591C8.60366 12.5403 8.65251 12.5306 8.70184 12.5307L8.70247 12.0307Z" fill="white"/>
</svg>
