<svg width="33" height="32" viewBox="0 0 33 32" fill="none" xmlns="http://www.w3.org/2000/svg">
<path fill-rule="evenodd" clip-rule="evenodd" d="M11.9149 9.37312L22.4137 9.37312L22.4137 18.0711L11.9149 18.0711L11.9149 9.37312ZM10.2841 9.37312C10.2841 8.47241 11.0142 7.74225 11.9149 7.74225H22.4137C23.3144 7.74225 24.0445 8.47241 24.0445 9.37312V18.0711C24.0445 18.9718 23.3144 19.702 22.4137 19.702H18.4384V22.4201C18.4384 23.3208 17.7083 24.051 16.8076 24.051H9.36671C8.46601 24.051 7.73584 23.3208 7.73584 22.4201V16.9839C7.73584 16.0832 8.46601 15.353 9.36671 15.353H10.2841V9.37312ZM10.2841 16.9839H9.36671L9.36671 22.4201H16.8076L16.8076 19.702H11.9149C11.0142 19.702 10.2841 18.9718 10.2841 18.0711V16.9839Z" fill="white"/>
<path fill-rule="evenodd" clip-rule="evenodd" d="M19.6626 16.6642C19.4377 16.8418 19.1547 16.9476 18.8472 16.9476C18.1148 16.9476 17.521 16.3472 17.521 15.6067C17.521 14.8661 18.1148 14.2657 18.8472 14.2657C19.1547 14.2657 19.4377 14.3715 19.6626 14.5491C19.8875 14.3715 20.1706 14.2657 20.4781 14.2657C21.2105 14.2657 21.8042 14.8661 21.8042 15.6067C21.8042 16.3472 21.2105 16.9476 20.4781 16.9476C20.1706 16.9476 19.8875 16.8418 19.6626 16.6642Z" fill="white"/>
</svg>
