<svg width="33" height="32" viewBox="0 0 33 32" fill="none" xmlns="http://www.w3.org/2000/svg">
<path fill-rule="evenodd" clip-rule="evenodd" d="M18.2099 12.5259H10.0695V18.3478L18.2099 18.3478L18.2099 12.5259ZM10.0695 10.7997C9.11612 10.7997 8.34326 11.5725 8.34326 12.5259V18.3478C8.34326 19.3011 9.11612 20.074 10.0695 20.074H18.2099C19.1633 20.074 19.9362 19.3011 19.9362 18.3478V12.5259C19.9362 11.5725 19.1633 10.7997 18.2099 10.7997H10.0695Z" fill="white"/>
<path d="M15.8226 16.5962C15.8226 17.2364 15.3161 17.7555 14.6913 17.7555C14.0665 17.7555 13.5601 17.2364 13.5601 16.5962C13.5601 15.9559 14.0665 15.4369 14.6913 15.4369C15.3161 15.4369 15.8226 15.9559 15.8226 16.5962Z" fill="white"/>
<path d="M17.2137 16.5964C17.2137 17.2366 16.7072 17.7557 16.0824 17.7557C15.4577 17.7557 14.9512 17.2366 14.9512 16.5964C14.9512 15.9561 15.4577 15.4371 16.0824 15.4371C16.7072 15.4371 17.2137 15.9561 17.2137 16.5964Z" fill="white"/>
<path fill-rule="evenodd" clip-rule="evenodd" d="M19.6658 12.4201C19.6702 12.4698 19.6725 12.5202 19.6725 12.571V13.9906H20.3825C20.9679 13.9906 21.4425 13.6109 21.4425 13.1426C21.4425 12.6742 20.9679 12.2946 20.3825 12.2946H19.6499C19.6567 12.3359 19.6621 12.3778 19.6658 12.4201Z" fill="white"/>
<path fill-rule="evenodd" clip-rule="evenodd" d="M23.3152 19.3813L21.4338 19.3809C21.423 19.3809 21.4122 19.381 21.4014 19.3813C21.4122 19.381 21.423 19.3809 21.4338 19.3809L21.4338 19.3813L23.3152 19.3813ZM10.4074 22.0945V19.9328H10.66V22.0945C10.66 22.6277 11.1048 23.0716 11.6622 23.0716H19.9245L19.9245 23.0689V20.6093C19.9245 19.7831 20.6055 19.1283 21.4338 19.1283H21.6864L23.3152 19.1287C23.395 19.1287 23.472 19.1427 23.5435 19.1683V8.97699C23.5435 8.44405 23.1002 8.00232 22.5404 8.00232H10.66V10.8874H10.4074L10.4074 7.74978V11.0141H10.0269C9.86889 11.0141 9.71593 11.0358 9.5709 11.0766L9.5709 10.9564C9.48355 10.9823 9.39916 11.015 9.31836 11.0541V6.67749H22.5404C23.8299 6.67749 24.8851 7.70146 24.8851 8.97699V21.2341L24.6956 21.4269L21.976 24.1949L21.7781 24.396H11.6622C10.3731 24.396 9.31836 23.3683 9.31836 22.0941V19.7662C9.39916 19.8052 9.48355 19.8379 9.5709 19.8638L9.5709 19.9969C9.71593 20.0376 9.86889 20.0594 10.0269 20.0594H10.4074L10.4074 22.0945ZM23.801 21.9771L24.6237 21.1398L24.5154 21.25L23.801 21.9771ZM22.5404 6.93003H9.5709V6.93004H9.98917L22.5404 6.93003ZM23.3152 20.4532C23.395 20.4532 23.472 20.4392 23.5435 20.4136V20.6968L21.2665 23.0146V20.6093C21.2665 20.528 21.3334 20.4532 21.4338 20.4532H23.3152Z" fill="white"/>
</svg>
