<svg width="33" height="32" viewBox="0 0 33 32" fill="none" xmlns="http://www.w3.org/2000/svg">
<path fill-rule="evenodd" clip-rule="evenodd" d="M22.1605 13.4783C21.7061 13.4783 21.3925 13.8495 21.3413 14.2975C21.0213 16.9855 19.5877 17.7215 18.2181 18.1439C17.9685 18.2207 17.5845 18.3935 17.5845 18.5279V15.7567C17.5845 15.7247 17.5845 15.6927 17.5845 15.6543V8.67832C17.5845 8.22392 17.0981 7.85912 16.6437 7.85912C16.1893 7.85912 15.7029 8.22392 15.7029 8.67832V13.3951C15.7029 13.2607 15.2741 13.1391 15.0373 13.0111C13.4629 12.1855 11.8565 11.4431 11.8565 8.67192C11.8565 8.21752 11.4981 7.85272 11.0501 7.85272C10.5957 7.85272 10.2373 8.21752 10.2373 8.67192C10.2373 12.4415 12.6501 13.7279 14.2757 14.5791C15.1653 15.0463 15.7029 15.3535 15.7029 15.7311V24.1471C15.7029 24.6015 16.1893 24.9663 16.6437 24.9663C17.0981 24.9663 17.5845 24.6015 17.5845 24.1471V21.3823C17.5845 20.9919 18.0645 20.6783 18.9797 20.2047C20.6053 19.3535 23.0245 18.0671 23.0245 14.2975C23.0181 13.8495 22.6149 13.4783 22.1605 13.4783Z" fill="white"/>
</svg>
