<svg width="32" height="32" viewBox="0 0 32 32" fill="none" xmlns="http://www.w3.org/2000/svg">
<path fill-rule="evenodd" clip-rule="evenodd" d="M15.619 17.891L14.211 16.483C13.9166 16.1886 13.9166 15.7022 14.211 15.4078C14.5054 15.1134 14.9918 15.1134 15.2862 15.4078L16.0734 16.195L18.0574 14.211C18.3518 13.9166 18.8382 13.9166 19.1326 14.211C19.427 14.5054 19.427 14.9918 19.1326 15.2862L16.5278 17.891C16.2718 18.1406 15.8686 18.1406 15.619 17.891Z" fill="white"/>
<path fill-rule="evenodd" clip-rule="evenodd" d="M16.4938 24.7408C16.3978 24.7408 16.3018 24.7216 16.2058 24.6896C8.82019 22.1296 8.93539 16.1008 9.01859 11.6976C9.02499 11.2368 9.03779 10.7952 9.03779 10.3728C9.03779 9.8928 9.42819 9.5024 9.90819 9.5024C12.4426 9.5024 14.2858 8.8112 15.8858 7.2496C16.225 6.9168 16.7626 6.9168 17.1018 7.2496C18.7018 8.8048 20.545 9.5024 23.0794 9.5024C23.5594 9.5024 23.9498 9.8928 23.9498 10.3728C23.9498 10.7952 23.9562 11.2304 23.969 11.6976C24.0522 16.1008 24.1674 22.1296 16.7818 24.6896C16.6858 24.728 16.5898 24.7408 16.4938 24.7408ZM10.7722 11.2304L10.7658 11.7424C10.6826 15.9728 10.593 20.7536 16.4938 22.9488C22.3946 20.7536 22.305 15.9664 22.2218 11.7424L22.2154 11.2304C19.9434 11.0896 18.0938 10.392 16.4938 9.0608C14.8938 10.3856 13.0442 11.0896 10.7722 11.2304Z" fill="white"/>
</svg>
