<svg width="33" height="32" viewBox="0 0 33 32" fill="none" xmlns="http://www.w3.org/2000/svg">
<path d="M24.6789 11.2693L23.7377 12.0221C24.2826 13.0625 25.0301 13.9607 25.0301 16.8686C24.3839 22.2868 20.406 25.269 16.3065 25.269V23.0074L12.7524 25.5921L16.3064 28.5V26.4537C21.7807 26.4537 26.2146 22.0197 26.2146 16.5454C26.2146 14.6009 25.6449 12.7927 24.6789 11.2693Z" fill="white" stroke="white" stroke-width="0.4"/>
<path d="M8.56171 22.3802L9.46633 21.5838C8.8729 20.5703 8.08393 19.7083 7.94674 16.8037C7.81064 11.6348 12.1693 8.19442 16.2643 8.00101L16.371 10.2602L19.7991 7.5106L16.112 4.77365L16.2085 6.81767C10.7403 7.07594 6.52046 11.7141 6.77873 17.1823C6.87046 19.1247 7.52486 20.904 8.56171 22.3802Z" fill="white" stroke="white" stroke-width="0.4"/>
<path d="M18.0123 13.488C18.1784 13.7561 18.2923 14.0868 18.3538 14.48H19.2308V15.5525H18.4C18.3569 16.196 18.1938 16.7277 17.9107 17.1478C17.6338 17.5678 17.2676 17.8404 16.8122 17.9655C16.9968 18.0281 17.163 18.1398 17.3107 18.3007C17.4584 18.4616 17.5969 18.6895 17.7261 18.9844L19.1015 21.9605H17.6799L16.2953 18.9174C16.1722 18.6314 16.0399 18.4303 15.8983 18.3141C15.7629 18.189 15.5814 18.1264 15.3537 18.1264H14.0244V16.7724H15.9906C16.3476 16.7724 16.6307 16.6696 16.8399 16.4641C17.0491 16.2585 17.1784 15.9547 17.2276 15.5525H14.0244V14.48H17.1907C17.123 14.1493 16.9876 13.9036 16.7845 13.7427C16.5814 13.5729 16.3168 13.488 15.9906 13.488H14.0244V12.4155H19.2308V13.488H18.0123Z" fill="white"/>
</svg>
