<svg width="33" height="32" viewBox="0 0 33 32" fill="none" xmlns="http://www.w3.org/2000/svg">
<path fill-rule="evenodd" clip-rule="evenodd" d="M25.9277 10.2389L25.8023 10.02L24.3471 11.0803L24.426 11.249C24.5042 11.4161 24.5846 11.5766 24.6653 11.7374C24.8858 12.177 25.1077 12.6194 25.2872 13.2075C25.5288 13.9994 25.6896 15.053 25.6181 16.6667C24.6435 22.5313 20.2372 25.6039 15.8039 25.5118L15.9286 22.7437L11.1702 25.8871L15.6077 29.8643L15.7232 27.3013C21.9291 27.4605 27.1422 22.6253 27.4228 16.3959C27.5237 14.1559 26.9611 12.0433 25.9277 10.2389Z" fill="white"/>
<path fill-rule="evenodd" clip-rule="evenodd" d="M6.78071 22.1964L6.91626 22.4091L8.31984 21.2814L8.23304 21.1166C8.1471 20.9534 8.05914 20.7969 7.97098 20.6401C7.72998 20.2113 7.48748 19.7799 7.28045 19.2009C7.00106 18.4195 6.79039 17.3717 6.78665 15.7501C6.89266 10.149 11.7024 6.58909 16.1726 6.46307L16.1787 9.23379L20.7835 5.86945L16.1633 2.10595L16.1689 4.67154C9.96236 4.80539 4.98315 9.88115 4.99676 16.1168C5.00165 18.3591 5.66329 20.4428 6.78071 22.1964Z" fill="white"/>
<path fill-rule="evenodd" clip-rule="evenodd" d="M12.6633 10.8764L19.2947 16.0807L17.1966 17.3872L17.1166 18.8607L21.4035 16.1913L17.4308 13.0734L17.3506 14.5508L16.3812 13.7901L16.5282 11.0823L23.1596 16.2866L16.0038 20.7425L16.1506 18.0386L12.1389 20.5366L12.6633 10.8764ZM13.5659 12.8675L17.5386 15.9854L13.2517 18.6548L13.5659 12.8675Z" fill="white"/>
</svg>
